<svg width="454" height="277" viewBox="0 0 454 277" fill="none" xmlns="http://www.w3.org/2000/svg">
<path d="M100 50C100 77.6142 77.6142 100 50 100C22.3858 100 0 77.6142 0 50C0 22.3858 22.3858 0 50 0C77.6142 0 100 22.3858 100 50Z" fill="#FF9500"/>
<path d="M218 50C218 77.6142 195.614 100 168 100C140.386 100 118 77.6142 118 50C118 22.3858 140.386 0 168 0C195.614 0 218 22.3858 218 50Z" fill="#FF3D3B"/>
<path d="M336 50C336 77.6142 313.614 100 286 100C258.386 100 236 77.6142 236 50C236 22.3858 258.386 0 286 0C313.614 0 336 22.3858 336 50Z" fill="#0880FF"/>
<path d="M454 50C454 77.6142 431.614 100 404 100C376.386 100 354 77.6142 354 50C354 22.3858 376.386 0 404 0C431.614 0 454 22.3858 454 50Z" fill="#A476FF"/>
<path d="M453 227C453 254.614 430.614 277 403 277C375.386 277 353 254.614 353 227C353 199.386 375.386 177 403 177C430.614 177 453 199.386 453 227Z" fill="#35FFA1"/>
<path d="M279 206C279 245.212 256.614 277 229 277C201.386 277 179 245.212 179 206C179 166.788 201.386 135 229 135C256.614 135 279 166.788 279 206Z" fill="#FFD000"/>
</svg>
